<?xml version="1.0" standalone="no"?>
<!DOCTYPE svg PUBLIC "-//W3C//DTD SVG 20010904//EN"
 "http://www.w3.org/TR/2001/REC-SVG-20010904/DTD/svg10.dtd">
<svg version="1.0" xmlns="http://www.w3.org/2000/svg"
 width="512.000000pt" height="512.000000pt" viewBox="0 0 512.000000 512.000000"
 preserveAspectRatio="xMidYMid meet">
<metadata>
Created by potrace 1.11, written by Peter Selinger 2001-2013
</metadata>
<g transform="translate(0.000000,512.000000) scale(0.100000,-0.100000)"
fill="#000000" stroke="none">
<path d="M3125 4199 c-146 -114 -151 -121 -125 -174 5 -11 20 -54 34 -95 36
-108 212 -620 225 -654 7 -16 9 -31 7 -34 -4 -3 -176 100 -269 161 -12 9 -20
9 -25 1 -9 -14 -402 -570 -500 -707 l-73 -102 5 -120 c3 -66 8 -191 12 -278 3
-88 7 -178 9 -202 3 -47 -2 -49 -50 -19 -11 6 -117 62 -235 124 -118 62 -246
129 -285 150 -38 20 -142 74 -230 120 -88 46 -164 86 -170 90 -5 4 -77 42
-160 85 -82 43 -154 81 -160 85 -23 17 -53 20 -68 6 -8 -8 -36 -34 -63 -57
-142 -121 -169 -145 -184 -159 -9 -8 -45 -40 -80 -70 -35 -30 -80 -70 -99 -87
-20 -18 -39 -33 -43 -33 -17 0 -6 -21 15 -29 12 -5 84 -39 160 -75 77 -36 140
-66 142 -66 1 0 60 -27 129 -60 70 -33 128 -60 130 -60 2 0 64 -29 137 -64 74
-35 163 -77 199 -94 129 -59 507 -235 590 -274 47 -22 103 -48 125 -58 22 -10
121 -56 220 -102 99 -47 205 -97 235 -110 30 -14 96 -45 145 -68 50 -23 117
-55 150 -70 33 -15 94 -43 135 -63 41 -19 140 -64 219 -101 l143 -67 85 88
c46 48 122 127 169 175 47 47 81 88 77 91 -22 14 -111 61 -228 122 -212 110
-466 245 -560 295 -62 33 -316 166 -410 214 l-70 36 45 1 c25 0 97 1 160 1
l115 1 80 58 c44 32 85 62 90 66 18 15 436 317 483 350 26 18 50 29 53 25 7
-8 159 -445 166 -479 5 -21 8 -20 72 21 272 175 338 222 333 236 -4 13 -309
790 -333 848 -5 12 -13 32 -19 45 -23 51 -343 864 -348 882 -2 11 -8 25 -12
30 -4 6 -35 83 -70 173 -35 89 -68 162 -74 162 -6 -1 -74 -50 -151 -111z"/>
</g>
</svg>
